<svg width="216" height="53" viewBox="0 0 216 53" fill="none" xmlns="http://www.w3.org/2000/svg">
<rect x="2" y="2" width="212" height="49" rx="2" fill="#0A9418" fill-opacity="0.75" stroke="#06600F" stroke-width="4"/>
<path d="M33.6445 32.2852C33.6445 31.2891 33.293 30.5273 32.5898 30C31.8867 29.4609 30.6211 28.8984 28.793 28.3125C26.9648 27.7148 25.5176 27.1289 24.4512 26.5547C21.5449 24.9844 20.0918 22.8691 20.0918 20.209C20.0918 18.8262 20.4785 17.5957 21.252 16.5176C22.0371 15.4277 23.1562 14.5781 24.6094 13.9688C26.0742 13.3594 27.7148 13.0547 29.5312 13.0547C31.3594 13.0547 32.9883 13.3887 34.418 14.0566C35.8477 14.7129 36.9551 15.6445 37.7402 16.8516C38.5371 18.0586 38.9355 19.4297 38.9355 20.9648H33.6621C33.6621 19.793 33.293 18.8848 32.5547 18.2402C31.8164 17.584 30.7793 17.2559 29.4434 17.2559C28.1543 17.2559 27.1523 17.5312 26.4375 18.082C25.7227 18.6211 25.3652 19.3359 25.3652 20.2266C25.3652 21.0586 25.7812 21.7559 26.6133 22.3184C27.457 22.8809 28.6934 23.4082 30.3223 23.9004C33.3223 24.8027 35.5078 25.9219 36.8789 27.2578C38.25 28.5938 38.9355 30.2578 38.9355 32.25C38.9355 34.4648 38.0977 36.2051 36.4219 37.4707C34.7461 38.7246 32.4902 39.3516 29.6543 39.3516C27.6855 39.3516 25.8926 38.9941 24.2754 38.2793C22.6582 37.5527 21.4219 36.5625 20.5664 35.3086C19.7227 34.0547 19.3008 32.6016 19.3008 30.9492H24.5918C24.5918 33.7734 26.2793 35.1855 29.6543 35.1855C30.9082 35.1855 31.8867 34.9336 32.5898 34.4297C33.293 33.9141 33.6445 33.1992 33.6445 32.2852ZM61.7871 17.6777H53.9473V39H48.6738V17.6777H40.9395V13.4062H61.7871V17.6777ZM74.2852 29.6309H70.084V39H64.8105V13.4062H74.3203C77.3438 13.4062 79.6758 14.0801 81.3164 15.4277C82.957 16.7754 83.7773 18.6797 83.7773 21.1406C83.7773 22.8867 83.3965 24.3457 82.6348 25.5176C81.8848 26.6777 80.7422 27.6035 79.207 28.2949L84.7441 38.7539V39H79.084L74.2852 29.6309ZM70.084 25.3594H74.3379C75.6621 25.3594 76.6875 25.0254 77.4141 24.3574C78.1406 23.6777 78.5039 22.7461 78.5039 21.5625C78.5039 20.3555 78.1582 19.4062 77.4668 18.7148C76.7871 18.0234 75.7383 17.6777 74.3203 17.6777H70.084V25.3594ZM103.201 27.9082H93.0762V34.7637H104.959V39H87.8027V13.4062H104.924V17.6777H93.0762V23.7773H103.201V27.9082ZM123.451 27.9082H113.326V34.7637H125.209V39H108.053V13.4062H125.174V17.6777H113.326V23.7773H123.451V27.9082ZM147.92 17.6777H140.08V39H134.807V17.6777H127.072V13.4062H147.92V17.6777ZM174.99 20.209C174.99 21.4512 174.68 22.5527 174.059 23.5137C173.438 24.4746 172.582 25.2422 171.492 25.8164C172.734 26.4141 173.719 27.2402 174.445 28.2949C175.172 29.3379 175.535 30.5684 175.535 31.9863C175.535 34.2598 174.762 36.0586 173.215 37.3828C171.668 38.6953 169.564 39.3516 166.904 39.3516C164.244 39.3516 162.135 38.6895 160.576 37.3652C159.018 36.041 158.238 34.248 158.238 31.9863C158.238 30.5684 158.602 29.332 159.328 28.2773C160.055 27.2227 161.033 26.4023 162.264 25.8164C161.174 25.2422 160.318 24.4746 159.697 23.5137C159.088 22.5527 158.783 21.4512 158.783 20.209C158.783 18.0293 159.51 16.2949 160.963 15.0059C162.416 13.7051 164.391 13.0547 166.887 13.0547C169.371 13.0547 171.34 13.6992 172.793 14.9883C174.258 16.2656 174.99 18.0059 174.99 20.209ZM170.438 31.6172C170.438 30.5039 170.115 29.6133 169.471 28.9453C168.826 28.2773 167.959 27.9434 166.869 27.9434C165.791 27.9434 164.93 28.2773 164.285 28.9453C163.641 29.6016 163.318 30.4922 163.318 31.6172C163.318 32.707 163.635 33.5859 164.268 34.2539C164.9 34.9219 165.779 35.2559 166.904 35.2559C168.006 35.2559 168.867 34.9336 169.488 34.2891C170.121 33.6445 170.438 32.7539 170.438 31.6172ZM169.91 20.4551C169.91 19.459 169.646 18.6621 169.119 18.0645C168.592 17.4551 167.848 17.1504 166.887 17.1504C165.938 17.1504 165.199 17.4434 164.672 18.0293C164.145 18.6152 163.881 19.4238 163.881 20.4551C163.881 21.4746 164.145 22.2949 164.672 22.916C165.199 23.5371 165.943 23.8477 166.904 23.8477C167.865 23.8477 168.604 23.5371 169.119 22.916C169.646 22.2949 169.91 21.4746 169.91 20.4551ZM195.662 20.209C195.662 21.4512 195.352 22.5527 194.73 23.5137C194.109 24.4746 193.254 25.2422 192.164 25.8164C193.406 26.4141 194.391 27.2402 195.117 28.2949C195.844 29.3379 196.207 30.5684 196.207 31.9863C196.207 34.2598 195.434 36.0586 193.887 37.3828C192.34 38.6953 190.236 39.3516 187.576 39.3516C184.916 39.3516 182.807 38.6895 181.248 37.3652C179.689 36.041 178.91 34.248 178.91 31.9863C178.91 30.5684 179.273 29.332 180 28.2773C180.727 27.2227 181.705 26.4023 182.936 25.8164C181.846 25.2422 180.99 24.4746 180.369 23.5137C179.76 22.5527 179.455 21.4512 179.455 20.209C179.455 18.0293 180.182 16.2949 181.635 15.0059C183.088 13.7051 185.062 13.0547 187.559 13.0547C190.043 13.0547 192.012 13.6992 193.465 14.9883C194.93 16.2656 195.662 18.0059 195.662 20.209ZM191.109 31.6172C191.109 30.5039 190.787 29.6133 190.143 28.9453C189.498 28.2773 188.631 27.9434 187.541 27.9434C186.463 27.9434 185.602 28.2773 184.957 28.9453C184.312 29.6016 183.99 30.4922 183.99 31.6172C183.99 32.707 184.307 33.5859 184.939 34.2539C185.572 34.9219 186.451 35.2559 187.576 35.2559C188.678 35.2559 189.539 34.9336 190.16 34.2891C190.793 33.6445 191.109 32.7539 191.109 31.6172ZM190.582 20.4551C190.582 19.459 190.318 18.6621 189.791 18.0645C189.264 17.4551 188.52 17.1504 187.559 17.1504C186.609 17.1504 185.871 17.4434 185.344 18.0293C184.816 18.6152 184.553 19.4238 184.553 20.4551C184.553 21.4746 184.816 22.2949 185.344 22.916C185.871 23.5371 186.615 23.8477 187.576 23.8477C188.537 23.8477 189.275 23.5371 189.791 22.916C190.318 22.2949 190.582 21.4746 190.582 20.4551Z" fill="white"/>
</svg>
