<svg width="32" height="32" viewBox="0 0 32 32" fill="none" xmlns="http://www.w3.org/2000/svg">
<rect x="1" y="1" width="30" height="30" rx="3" fill="#0A9418" fill-opacity="0.75" stroke="#06600F" stroke-width="2"/>
<path d="M15.25 14.1481C15.25 14.5621 15.1465 14.9293 14.9395 15.2496C14.7325 15.5699 14.4473 15.8258 14.084 16.0172C14.4981 16.2164 14.8262 16.4918 15.0684 16.8434C15.3106 17.191 15.4317 17.6012 15.4317 18.0739C15.4317 18.8317 15.1739 19.4313 14.6582 19.8727C14.1426 20.3102 13.4414 20.5289 12.5547 20.5289C11.668 20.5289 10.9649 20.3082 10.4453 19.8668C9.92581 19.4254 9.66604 18.8278 9.66604 18.0739C9.66604 17.6012 9.78714 17.1891 10.0293 16.8375C10.2715 16.486 10.5977 16.2125 11.0078 16.0172C10.6446 15.8258 10.3594 15.5699 10.1524 15.2496C9.94925 14.9293 9.84768 14.5621 9.84768 14.1481C9.84768 13.4215 10.0899 12.8434 10.5742 12.4137C11.0586 11.9801 11.7168 11.7633 12.5489 11.7633C13.377 11.7633 14.0332 11.9781 14.5176 12.4078C15.0059 12.8336 15.25 13.4137 15.25 14.1481ZM13.7325 17.9508C13.7325 17.5797 13.625 17.2828 13.4102 17.0602C13.1953 16.8375 12.9063 16.7262 12.543 16.7262C12.1836 16.7262 11.8965 16.8375 11.6817 17.0602C11.4668 17.2789 11.3594 17.5758 11.3594 17.9508C11.3594 18.3141 11.4649 18.6071 11.6758 18.8297C11.8867 19.0524 12.1797 19.1637 12.5547 19.1637C12.9219 19.1637 13.209 19.0563 13.416 18.8414C13.627 18.6266 13.7325 18.3297 13.7325 17.9508ZM13.5567 14.2301C13.5567 13.8981 13.4688 13.6324 13.293 13.4332C13.1172 13.2301 12.8692 13.1285 12.5489 13.1285C12.2325 13.1285 11.9864 13.2262 11.8106 13.4215C11.6348 13.6168 11.5469 13.8864 11.5469 14.2301C11.5469 14.5699 11.6348 14.8434 11.8106 15.0504C11.9864 15.2574 12.2344 15.361 12.5547 15.361C12.875 15.361 13.1211 15.2574 13.293 15.0504C13.4688 14.8434 13.5567 14.5699 13.5567 14.2301ZM22.1407 14.1481C22.1407 14.5621 22.0371 14.9293 21.8301 15.2496C21.6231 15.5699 21.3379 15.8258 20.9746 16.0172C21.3887 16.2164 21.7168 16.4918 21.959 16.8434C22.2012 17.191 22.3223 17.6012 22.3223 18.0739C22.3223 18.8317 22.0645 19.4313 21.5489 19.8727C21.0332 20.3102 20.3321 20.5289 19.4453 20.5289C18.5586 20.5289 17.8555 20.3082 17.336 19.8668C16.8164 19.4254 16.5567 18.8278 16.5567 18.0739C16.5567 17.6012 16.6778 17.1891 16.92 16.8375C17.1621 16.486 17.4883 16.2125 17.8985 16.0172C17.5352 15.8258 17.25 15.5699 17.043 15.2496C16.8399 14.9293 16.7383 14.5621 16.7383 14.1481C16.7383 13.4215 16.9805 12.8434 17.4649 12.4137C17.9492 11.9801 18.6075 11.7633 19.4395 11.7633C20.2676 11.7633 20.9239 11.9781 21.4082 12.4078C21.8965 12.8336 22.1407 13.4137 22.1407 14.1481ZM20.6231 17.9508C20.6231 17.5797 20.5157 17.2828 20.3008 17.0602C20.086 16.8375 19.7969 16.7262 19.4336 16.7262C19.0742 16.7262 18.7871 16.8375 18.5723 17.0602C18.3575 17.2789 18.25 17.5758 18.25 17.9508C18.25 18.3141 18.3555 18.6071 18.5664 18.8297C18.7774 19.0524 19.0703 19.1637 19.4453 19.1637C19.8125 19.1637 20.0996 19.0563 20.3067 18.8414C20.5176 18.6266 20.6231 18.3297 20.6231 17.9508ZM20.4473 14.2301C20.4473 13.8981 20.3594 13.6324 20.1836 13.4332C20.0078 13.2301 19.7598 13.1285 19.4395 13.1285C19.1231 13.1285 18.877 13.2262 18.7012 13.4215C18.5254 13.6168 18.4375 13.8864 18.4375 14.2301C18.4375 14.5699 18.5254 14.8434 18.7012 15.0504C18.877 15.2574 19.125 15.361 19.4453 15.361C19.7657 15.361 20.0117 15.2574 20.1836 15.0504C20.3594 14.8434 20.4473 14.5699 20.4473 14.2301Z" fill="white"/>
</svg>
